<svg xmlns="http://www.w3.org/2000/svg" xmlns:xlink="http://www.w3.org/1999/xlink" width="1280" zoomAndPan="magnify" viewBox="0 0 960 540.000001" height="720" preserveAspectRatio="xMidYMid meet" version="1.0"><defs><clipPath id="5e6500fdfe"><path d="M 0.886719 0 L 959.113281 0 L 959.113281 539 L 0.886719 539 Z M 0.886719 0 " clip-rule="nonzero"/></clipPath><clipPath id="8b37994edf"><path d="M 530.171875 244 L 959.113281 244 L 959.113281 539 L 530.171875 539 Z M 530.171875 244 " clip-rule="nonzero"/></clipPath><clipPath id="93d9057116"><path d="M 0.886719 0 L 923 0 L 923 539 L 0.886719 539 Z M 0.886719 0 " clip-rule="nonzero"/></clipPath><clipPath id="d8d869063c"><path d="M 0.886719 0 L 479 0 L 479 316.414062 L 0.886719 316.414062 Z M 0.886719 0 " clip-rule="nonzero"/></clipPath><clipPath id="0fc10922fb"><path d="M 0.886719 0 L 270 0 L 270 126.699219 L 0.886719 126.699219 Z M 0.886719 0 " clip-rule="nonzero"/></clipPath></defs><g clip-path="url(#5e6500fdfe)"><path fill="#ffffff" d="M 0.886719 0 L 959.113281 0 L 959.113281 539 L 0.886719 539 Z M 0.886719 0 " fill-opacity="1" fill-rule="nonzero"/></g><g clip-path="url(#8b37994edf)"><path fill="#6b8cd8" d="M 530.367188 589.085938 C 538.734375 553.804688 571.710938 454.996094 673.304688 468.820312 C 796.722656 485.792969 824 480.578125 839.519531 396.078125 C 854.308594 316.0625 912.382812 241.863281 974.820312 244.410156 L 974.820312 589.085938 Z M 530.367188 589.085938 " fill-opacity="1" fill-rule="nonzero"/></g><g clip-path="url(#93d9057116)"><path fill="#f9f9f9" d="M -155.078125 124.878906 C -155.078125 172.054688 -132.613281 214.175781 -97.792969 241.132812 C -87.121094 249.558594 -93.296875 266.40625 -106.777344 266.40625 L -205.0625 266.40625 C -286.5 266.96875 -352.210938 332.679688 -352.210938 414.117188 C -352.210938 495.550781 -286.5 561.261719 -205.0625 561.261719 L 339.15625 561.261719 C 420.59375 561.261719 486.304688 495.550781 486.304688 414.117188 C 486.304688 409.0625 486.304688 404.570312 485.742188 400.074219 C 479 332.117188 530.671875 272.585938 598.628906 272.585938 L 774.980469 272.585938 C 856.417969 272.585938 922.128906 206.875 922.128906 125.4375 C 922.6875 43.441406 856.976562 -22.269531 775.542969 -22.269531 L -7.929688 -22.269531 C -89.367188 -22.269531 -155.078125 43.441406 -155.078125 124.878906 Z M -155.078125 124.878906 " fill-opacity="1" fill-rule="nonzero"/></g><g clip-path="url(#d8d869063c)"><path fill="#f2f2f2" d="M -224.277344 32.105469 C -224.277344 62.878906 -209.621094 90.355469 -186.910156 107.941406 C -179.949219 113.4375 -183.976562 124.429688 -192.769531 124.429688 L -256.882812 124.429688 C -310.003906 124.792969 -352.867188 167.65625 -352.867188 220.78125 C -352.867188 273.902344 -310.003906 316.765625 -256.882812 316.765625 L 98.117188 316.765625 C 151.242188 316.765625 194.105469 273.902344 194.105469 220.78125 C 194.105469 217.484375 194.105469 214.550781 193.738281 211.621094 C 189.34375 167.292969 223.046875 128.457031 267.375 128.457031 L 382.414062 128.457031 C 435.535156 128.457031 478.398438 85.59375 478.398438 32.472656 C 478.765625 -21.015625 435.902344 -63.878906 382.78125 -63.878906 L -128.289062 -63.878906 C -181.414062 -63.878906 -224.277344 -21.015625 -224.277344 32.105469 Z M -224.277344 32.105469 " fill-opacity="1" fill-rule="nonzero"/></g><g clip-path="url(#0fc10922fb)"><path fill="#6b8cd8" d="M -53.324219 -4.367188 C -53.324219 9.773438 -46.589844 22.402344 -36.152344 30.480469 C -32.953125 33.007812 -34.804688 38.058594 -38.84375 38.058594 L -68.304688 38.058594 C -92.71875 38.226562 -112.414062 57.921875 -112.414062 82.335938 C -112.414062 106.746094 -92.71875 126.441406 -68.304688 126.441406 L 94.828125 126.441406 C 119.238281 126.441406 138.933594 106.746094 138.933594 82.335938 C 138.933594 80.820312 138.933594 79.472656 138.765625 78.125 C 136.746094 57.753906 152.234375 39.910156 172.605469 39.910156 L 225.46875 39.910156 C 249.878906 39.910156 269.578125 20.210938 269.578125 -4.199219 C 269.746094 -28.777344 250.046875 -48.476562 225.636719 -48.476562 L -9.214844 -48.476562 C -33.625 -48.476562 -53.324219 -28.777344 -53.324219 -4.367188 Z M -53.324219 -4.367188 " fill-opacity="1" fill-rule="nonzero"/></g></svg>