<?xml version="1.0" standalone="no"?>
<svg xmlns:xlink="http://www.w3.org/1999/xlink" id="wave" style="transform:rotate(0deg); transition: 0.3s" viewBox="0 0 1440 490" version="1.1" xmlns="http://www.w3.org/2000/svg"><defs><linearGradient id="sw-gradient-0" x1="0" x2="0" y1="1" y2="0"><stop stop-color="rgba(255, 255, 255, 1)" offset="0%"/><stop stop-color="rgba(255, 255, 255, 1)" offset="100%"/></linearGradient></defs><path style="transform:translate(0, 0px); opacity:1" fill="url(#sw-gradient-0)" d="M0,441L48,375.7C96,310,192,180,288,138.8C384,98,480,147,576,204.2C672,261,768,327,864,302.2C960,278,1056,163,1152,114.3C1248,65,1344,82,1440,138.8C1536,196,1632,294,1728,294C1824,294,1920,196,2016,204.2C2112,212,2208,327,2304,367.5C2400,408,2496,376,2592,310.3C2688,245,2784,147,2880,122.5C2976,98,3072,147,3168,163.3C3264,180,3360,163,3456,171.5C3552,180,3648,212,3744,196C3840,180,3936,114,4032,98C4128,82,4224,114,4320,106.2C4416,98,4512,49,4608,81.7C4704,114,4800,229,4896,277.7C4992,327,5088,310,5184,277.7C5280,245,5376,196,5472,147C5568,98,5664,49,5760,81.7C5856,114,5952,229,6048,236.8C6144,245,6240,147,6336,122.5C6432,98,6528,147,6624,163.3C6720,180,6816,163,6864,155.2L6912,147L6912,490L6864,490C6816,490,6720,490,6624,490C6528,490,6432,490,6336,490C6240,490,6144,490,6048,490C5952,490,5856,490,5760,490C5664,490,5568,490,5472,490C5376,490,5280,490,5184,490C5088,490,4992,490,4896,490C4800,490,4704,490,4608,490C4512,490,4416,490,4320,490C4224,490,4128,490,4032,490C3936,490,3840,490,3744,490C3648,490,3552,490,3456,490C3360,490,3264,490,3168,490C3072,490,2976,490,2880,490C2784,490,2688,490,2592,490C2496,490,2400,490,2304,490C2208,490,2112,490,2016,490C1920,490,1824,490,1728,490C1632,490,1536,490,1440,490C1344,490,1248,490,1152,490C1056,490,960,490,864,490C768,490,672,490,576,490C480,490,384,490,288,490C192,490,96,490,48,490L0,490Z"/></svg>